<svg xmlns="http://www.w3.org/2000/svg" aria-hidden="true" style="width:0;height:0;position:absolute;overflow:hidden"><defs><symbol id="icon-menu" viewBox="0 0 32 32"><path stroke-linecap="round" stroke-linejoin="round" stroke-width="2.286" d="M22.667 13.333H4M28 8H4m24 10.667H4M22.667 24H4"/></symbol><symbol id="icon-cross" viewBox="0 0 32 32"><path stroke-linecap="round" stroke-linejoin="round" stroke-width="5.333" d="M28.444 3.556 3.555 28.445m.001-24.889 24.889 24.889"/></symbol><symbol id="icon-lock" viewBox="0 0 32 32"><path stroke-linecap="round" stroke-linejoin="round" stroke-width="2.667" d="M23.778 14.444V9.777c0-4.296-3.482-7.778-7.778-7.778S8.222 5.481 8.222 9.777v4.667M9.467 30h13.067c2.614 0 3.92 0 4.919-.509a4.662 4.662 0 0 0 2.039-2.039c.509-.998.509-2.305.509-4.919v-.622c0-2.614 0-3.92-.509-4.919a4.662 4.662 0 0 0-2.039-2.039c-.998-.509-2.305-.509-4.919-.509H9.467c-2.614 0-3.92 0-4.919.509a4.662 4.662 0 0 0-2.039 2.039C2 17.99 2 19.297 2 21.911v.622c0 2.614 0 3.92.509 4.919a4.662 4.662 0 0 0 2.039 2.039C5.546 30 6.853 30 9.467 30z"/></symbol><symbol id="icon-email" viewBox="0 0 32 32"><path stroke-linecap="round" stroke-linejoin="round" stroke-width="2.462" d="M29.641 24.615 20.103 16m-8.206 0-9.538 8.615M1.641 8.821l11.724 8.207c.949.665 1.424.997 1.94 1.126.456.114.933.114 1.389 0 .516-.129.991-.461 1.94-1.126l11.724-8.207M8.533 27.487h14.933c2.413 0 3.619 0 4.54-.47a4.303 4.303 0 0 0 1.882-1.883c.47-.921.47-2.128.47-4.54v-9.19c0-2.413 0-3.619-.47-4.54a4.308 4.308 0 0 0-1.882-1.883c-.921-.47-2.128-.47-4.54-.47H8.533c-2.413 0-3.619 0-4.54.47A4.305 4.305 0 0 0 2.11 6.864c-.47.921-.47 2.128-.47 4.54v9.19c0 2.412 0 3.619.47 4.54a4.305 4.305 0 0 0 1.883 1.883c.921.47 2.128.47 4.54.47z"/></symbol><symbol id="icon-basket" viewBox="0 0 32 32"><path stroke-linecap="round" stroke-linejoin="round" stroke-width="3.2" d="M11.6 2.8h8.8M2.8 7.2h26.4m-2.933 0-1.029 15.428c-.154 2.315-.232 3.472-.731 4.35a4.397 4.397 0 0 1-1.904 1.781c-.909.44-2.069.44-4.389.44h-4.427c-2.32 0-3.48 0-4.389-.44a4.403 4.403 0 0 1-1.904-1.781c-.5-.878-.577-2.035-.731-4.35L5.734 7.2m7.333 6.6v7.333m5.866-7.333v7.333"/></symbol><symbol id="icon-user" viewBox="0 0 32 32"><path d="M4.741 30.963a11.26 11.26 0 1 1 22.519 0H4.742zM16 18.296c-4.666 0-8.444-3.779-8.444-8.444S11.335 1.408 16 1.408c4.666 0 8.444 3.779 8.444 8.444S20.665 18.296 16 18.296z"/></symbol><symbol id="icon-short-arrow" viewBox="0 0 32 32"><path d="M.631 21.389 14.778 7.2c.168-.168.351-.287.547-.357.197-.071.407-.106.632-.106s.435.035.632.106c.197.07.379.189.547.357l14.189 14.189c.393.393.589.884.589 1.474s-.211 1.095-.632 1.516c-.421.421-.912.632-1.474.632s-1.053-.211-1.474-.632L15.955 12 3.576 24.379a1.973 1.973 0 0 1-1.452.589c-.576 0-1.075-.211-1.496-.632s-.632-.912-.632-1.474c0-.561.211-1.053.632-1.474z"/></symbol><symbol id="icon-long-arrow" viewBox="0 0 32 32"><path stroke-linecap="round" stroke-linejoin="round" stroke-width="4" d="M2.667 16h26.667m-.001 0-10-10m10 10-10 10"/></symbol><symbol id="icon-logo" viewBox="0 0 32 32"><path fill="#f6f6f6" d="m0 0 16.343 16.171L32 32V0H0z" style="fill:var(--color1,#f6f6f6)"/><path fill="#f6f6f6" d="M4.457 4.229 16.4 16.058l11.257 11.486h-23.2V4.23z" style="fill:var(--color1,#f6f6f6)"/><path fill="#4f2ee8" d="M27.733 27.618 15.79 15.789 4.533 4.303h23.2v23.314z" style="fill:var(--color2,#4f2ee8)"/><path fill="#4f2ee8" d="m9.257 9.029 13.6 13.6h-13.6v-13.6z" style="fill:var(--color2,#4f2ee8)"/><path fill="#f6f6f6" d="m9.257 9.029 13.6 13.6v-13.6h-13.6z" style="fill:var(--color1,#f6f6f6)"/></symbol><symbol id="icon-bag" viewBox="0 0 25 32"><path d="M22.814 8.592H18.37V7.111a5.925 5.925 0 0 0-11.85 0v1.481H2.074a1.48 1.48 0 0 0-1.481 1.481V26.37a4.444 4.444 0 0 0 4.444 4.444h14.816a4.444 4.444 0 0 0 4.444-4.444V10.073a1.48 1.48 0 0 0-1.481-1.481h-.002zM9.481 7.111a2.964 2.964 0 1 1 5.928 0v1.481H9.482V7.111zM21.333 26.37v.002a1.48 1.48 0 0 1-1.481 1.481H5.036a1.48 1.48 0 0 1-1.481-1.481V11.556h2.964v1.481a1.48 1.48 0 1 0 2.962 0v-1.481h5.927v1.481a1.48 1.48 0 1 0 2.962 0v-1.481h2.964V26.37z"/></symbol><symbol id="icon-national-emblem" viewBox="0 0 20 32"><path d="M9.005 30.888A8.656 8.656 0 0 1 5.6 25.592l-.009-.055H0V2.42c2.991 1.443 5.153 4.6 5.388 7.876l.845 6.493-.407-.045c-.893 0-1.676.812-1.676 1.608 0 .752.595 1.383 1.379 1.548l1.018.226c1.675-3.051 2.63-6.042 2.63-8.973 0-2.646-.36-5.291-.422-7.997 0-1.202.485-2.3 1.253-3.156.783.857 1.253 1.954 1.253 3.156 0 2.706-.423 5.351-.423 7.997 0 2.93.955 5.922 2.631 8.973l1.018-.226c.783-.165 1.378-.811 1.378-1.548 0-.811-.783-1.608-1.675-1.608l-.423.06.845-6.493C15.035 7.034 17.01 3.863 20 2.435v23.117h-5.576c-.422 2.18-1.613 4.148-3.414 5.35-.423.286-.783.632-1.018 1.098-.22-.466-.58-.812-.987-1.112zM2.647 17.556c.235-.857.893-1.609 1.738-2.075l-.658-5.35a8.283 8.283 0 0 0-2.043-4.382l.007.008V17.54h.956v.015zm2.819 6.373c0-.812.125-1.548.298-2.3l-.784-.18c-1.143-.346-2.036-1.203-2.333-2.3H1.69v4.78h3.775zm3.712 0c0-.977-.783-1.834-1.801-1.954-.173.63-.298 1.262-.298 1.954h2.099zm0 1.623H7.314c.298 1.262.955 2.42 1.864 3.397v-3.397zm2.63-5.005c-.72-1.263-1.377-2.585-1.8-3.968-.423 1.383-1.08 2.705-1.801 3.968.72.165 1.315.631 1.8 1.157.486-.526 1.082-.992 1.802-1.157zm1.144 3.382c0-.692-.125-1.323-.297-1.954-1.018.12-1.801.977-1.801 1.954h2.098zm-.235 1.623h-1.863v3.397c.908-.992 1.566-2.135 1.863-3.397zm5.623-1.623v-4.78h-.956c-.297 1.097-1.206 1.954-2.333 2.3l-.783.18c.172.752.297 1.488.297 2.3h3.775zm0-6.373v-11.8c-1.08 1.203-1.864 2.706-2.036 4.375l-.658 5.35c.846.466 1.504 1.203 1.738 2.075h.956z"/></symbol><symbol id="icon-smoll-arrow" viewBox="0 0 56 32"><path d="M25.4 21.132c.664.668 1.584 1.081 2.6 1.081s1.936-.413 2.6-1.081L47.4 4.304a3.666 3.666 0 1 1 5.2 5.168L35.776 26.304c-1.99 1.987-4.738 3.216-7.772 3.216s-5.782-1.229-7.772-3.216L3.396 9.472a3.668 3.668 0 1 1 5.208-5.168l16.792 16.828z"/></symbol></defs></svg>